<mxfile host="app.diagrams.net" modified="2020-10-29T16:25:01.367Z" agent="5.0 (Windows NT 10.0; Win64; x64) AppleWebKit/537.36 (KHTML, like Gecko) Chrome/86.0.4240.111 Safari/537.36" etag="Vlpq5Gbpldf7keExlJD_" version="13.8.7" type="github">
  <diagram name="Page-1" id="0783ab3e-0a74-02c8-0abd-f7b4e66b4bec">
    <mxGraphModel dx="1422" dy="762" grid="1" gridSize="10" guides="1" tooltips="1" connect="1" arrows="1" fold="1" page="1" pageScale="1" pageWidth="850" pageHeight="1100" background="#ffffff" math="0" shadow="0">
      <root>
        <mxCell id="0" />
        <mxCell id="1" parent="0" />
        <mxCell id="1c1d494c118603dd-1" value="UC 1 - Potvrzení účasti na události" style="swimlane;html=1;childLayout=stackLayout;startSize=20;rounded=0;shadow=0;comic=0;labelBackgroundColor=none;strokeWidth=1;fontFamily=Verdana;fontSize=12;align=center;" parent="1" vertex="1">
          <mxGeometry x="40" y="20" width="770" height="990" as="geometry" />
        </mxCell>
        <mxCell id="1c1d494c118603dd-3" value="Uživatel" style="swimlane;html=1;startSize=20;" parent="1c1d494c118603dd-1" vertex="1">
          <mxGeometry y="20" width="390" height="970" as="geometry" />
        </mxCell>
        <mxCell id="60571a20871a0731-4" value="" style="ellipse;whiteSpace=wrap;html=1;rounded=0;shadow=0;comic=0;labelBackgroundColor=none;strokeWidth=1;fillColor=#000000;fontFamily=Verdana;fontSize=12;align=center;" parent="1c1d494c118603dd-3" vertex="1">
          <mxGeometry x="175" y="40" width="40" height="40" as="geometry" />
        </mxCell>
        <mxCell id="60571a20871a0731-8" value="Detail události" style="rounded=1;whiteSpace=wrap;html=1;shadow=0;comic=0;labelBackgroundColor=none;strokeWidth=1;fontFamily=Verdana;fontSize=12;align=center;arcSize=50;" parent="1c1d494c118603dd-3" vertex="1">
          <mxGeometry x="145" y="110" width="100" height="30" as="geometry" />
        </mxCell>
        <mxCell id="1c1d494c118603dd-27" style="edgeStyle=orthogonalEdgeStyle;rounded=0;html=1;labelBackgroundColor=none;startArrow=none;startFill=0;startSize=5;endArrow=classicThin;endFill=1;endSize=5;jettySize=auto;orthogonalLoop=1;strokeWidth=1;fontFamily=Verdana;fontSize=12" parent="1c1d494c118603dd-3" source="60571a20871a0731-4" target="60571a20871a0731-8" edge="1">
          <mxGeometry relative="1" as="geometry" />
        </mxCell>
        <mxCell id="60571a20871a0731-5" value="" style="shape=mxgraph.bpmn.shape;html=1;verticalLabelPosition=bottom;labelBackgroundColor=#ffffff;verticalAlign=top;perimeter=ellipsePerimeter;outline=end;symbol=terminate;rounded=0;shadow=0;comic=0;strokeWidth=1;fontFamily=Verdana;fontSize=12;align=center;" parent="1c1d494c118603dd-3" vertex="1">
          <mxGeometry x="170" y="870" width="40" height="40" as="geometry" />
        </mxCell>
        <mxCell id="C9J_RSHf58IaOL_2hDed-2" value="Přihlásit" style="rounded=1;whiteSpace=wrap;html=1;shadow=0;comic=0;labelBackgroundColor=none;strokeWidth=1;fontFamily=Verdana;fontSize=12;align=center;arcSize=50;" vertex="1" parent="1c1d494c118603dd-3">
          <mxGeometry x="145" y="180" width="100" height="30" as="geometry" />
        </mxCell>
        <mxCell id="C9J_RSHf58IaOL_2hDed-3" value="" style="edgeStyle=orthogonalEdgeStyle;rounded=0;orthogonalLoop=1;jettySize=auto;html=1;" edge="1" parent="1c1d494c118603dd-3" source="60571a20871a0731-8" target="C9J_RSHf58IaOL_2hDed-2">
          <mxGeometry relative="1" as="geometry" />
        </mxCell>
        <mxCell id="C9J_RSHf58IaOL_2hDed-16" value="Seznam kryjících se událostí" style="rounded=1;whiteSpace=wrap;html=1;shadow=0;comic=0;labelBackgroundColor=none;strokeWidth=1;fontFamily=Verdana;fontSize=12;align=center;arcSize=50;" vertex="1" parent="1c1d494c118603dd-3">
          <mxGeometry x="90" y="580" width="100" height="60" as="geometry" />
        </mxCell>
        <mxCell id="C9J_RSHf58IaOL_2hDed-25" value="Detail události" style="rounded=1;whiteSpace=wrap;html=1;shadow=0;comic=0;labelBackgroundColor=none;strokeWidth=1;fontFamily=Verdana;fontSize=12;align=center;arcSize=50;" vertex="1" parent="1c1d494c118603dd-3">
          <mxGeometry x="140" y="820" width="100" height="30" as="geometry" />
        </mxCell>
        <mxCell id="C9J_RSHf58IaOL_2hDed-26" value="" style="endArrow=classic;html=1;exitX=0.5;exitY=1;exitDx=0;exitDy=0;entryX=0.5;entryY=0;entryDx=0;entryDy=0;" edge="1" parent="1c1d494c118603dd-3" source="C9J_RSHf58IaOL_2hDed-25" target="60571a20871a0731-5">
          <mxGeometry width="50" height="50" relative="1" as="geometry">
            <mxPoint x="250" y="890" as="sourcePoint" />
            <mxPoint x="300" y="840" as="targetPoint" />
          </mxGeometry>
        </mxCell>
        <mxCell id="C9J_RSHf58IaOL_2hDed-27" value="" style="rhombus;" vertex="1" parent="1c1d494c118603dd-3">
          <mxGeometry x="125" y="660" width="30" height="30" as="geometry" />
        </mxCell>
        <mxCell id="C9J_RSHf58IaOL_2hDed-28" value="" style="endArrow=classic;html=1;exitX=0.5;exitY=1;exitDx=0;exitDy=0;entryX=0.5;entryY=0;entryDx=0;entryDy=0;" edge="1" parent="1c1d494c118603dd-3" source="C9J_RSHf58IaOL_2hDed-16" target="C9J_RSHf58IaOL_2hDed-27">
          <mxGeometry width="50" height="50" relative="1" as="geometry">
            <mxPoint x="230" y="710" as="sourcePoint" />
            <mxPoint x="280" y="660" as="targetPoint" />
          </mxGeometry>
        </mxCell>
        <mxCell id="C9J_RSHf58IaOL_2hDed-31" value="Přesto se přihlásit" style="text;html=1;strokeColor=none;fillColor=none;align=center;verticalAlign=middle;whiteSpace=wrap;rounded=0;" vertex="1" parent="1c1d494c118603dd-3">
          <mxGeometry x="180" y="650" width="110" height="20" as="geometry" />
        </mxCell>
        <mxCell id="C9J_RSHf58IaOL_2hDed-35" value="Odhlásit z událostí" style="text;html=1;strokeColor=none;fillColor=none;align=center;verticalAlign=middle;whiteSpace=wrap;rounded=0;" vertex="1" parent="1c1d494c118603dd-3">
          <mxGeometry x="155" y="730" width="135" height="20" as="geometry" />
        </mxCell>
        <mxCell id="C9J_RSHf58IaOL_2hDed-37" style="edgeStyle=orthogonalEdgeStyle;rounded=0;orthogonalLoop=1;jettySize=auto;html=1;exitX=0;exitY=0.5;exitDx=0;exitDy=0;entryX=0;entryY=0.5;entryDx=0;entryDy=0;" edge="1" parent="1c1d494c118603dd-3" source="C9J_RSHf58IaOL_2hDed-27" target="60571a20871a0731-8">
          <mxGeometry relative="1" as="geometry">
            <mxPoint x="60" y="120" as="targetPoint" />
            <Array as="points">
              <mxPoint x="60" y="675" />
              <mxPoint x="60" y="125" />
            </Array>
          </mxGeometry>
        </mxCell>
        <mxCell id="C9J_RSHf58IaOL_2hDed-39" value="Zrušit" style="text;html=1;strokeColor=none;fillColor=none;align=center;verticalAlign=middle;whiteSpace=wrap;rounded=0;" vertex="1" parent="1c1d494c118603dd-3">
          <mxGeometry x="70" y="650" width="40" height="20" as="geometry" />
        </mxCell>
        <mxCell id="C9J_RSHf58IaOL_2hDed-5" value="" style="edgeStyle=orthogonalEdgeStyle;rounded=0;orthogonalLoop=1;jettySize=auto;html=1;" edge="1" parent="1c1d494c118603dd-1" source="C9J_RSHf58IaOL_2hDed-2" target="C9J_RSHf58IaOL_2hDed-4">
          <mxGeometry relative="1" as="geometry">
            <Array as="points">
              <mxPoint x="195" y="290" />
              <mxPoint x="580" y="290" />
            </Array>
          </mxGeometry>
        </mxCell>
        <mxCell id="1c1d494c118603dd-4" value="Systém" style="swimlane;html=1;startSize=20;" parent="1c1d494c118603dd-1" vertex="1">
          <mxGeometry x="390" y="20" width="380" height="970" as="geometry" />
        </mxCell>
        <mxCell id="C9J_RSHf58IaOL_2hDed-4" value="Ověření obsazení" style="rounded=1;whiteSpace=wrap;html=1;shadow=0;comic=0;labelBackgroundColor=none;strokeWidth=1;fontFamily=Verdana;fontSize=12;align=center;arcSize=50;" vertex="1" parent="1c1d494c118603dd-4">
          <mxGeometry x="140" y="280" width="100" height="30" as="geometry" />
        </mxCell>
        <mxCell id="C9J_RSHf58IaOL_2hDed-6" value="" style="rhombus;" vertex="1" parent="1c1d494c118603dd-4">
          <mxGeometry x="175" y="350" width="30" height="30" as="geometry" />
        </mxCell>
        <mxCell id="C9J_RSHf58IaOL_2hDed-7" value="" style="endArrow=classic;html=1;entryX=0.5;entryY=0;entryDx=0;entryDy=0;exitX=0.5;exitY=1;exitDx=0;exitDy=0;" edge="1" parent="1c1d494c118603dd-4" source="C9J_RSHf58IaOL_2hDed-4" target="C9J_RSHf58IaOL_2hDed-6">
          <mxGeometry width="50" height="50" relative="1" as="geometry">
            <mxPoint x="180" y="500" as="sourcePoint" />
            <mxPoint x="230" y="450" as="targetPoint" />
          </mxGeometry>
        </mxCell>
        <mxCell id="C9J_RSHf58IaOL_2hDed-8" value="" style="endArrow=classic;html=1;exitX=0;exitY=0.5;exitDx=0;exitDy=0;entryX=0.5;entryY=0;entryDx=0;entryDy=0;rounded=0;" edge="1" parent="1c1d494c118603dd-4" source="C9J_RSHf58IaOL_2hDed-6" target="C9J_RSHf58IaOL_2hDed-9">
          <mxGeometry width="50" height="50" relative="1" as="geometry">
            <mxPoint x="150" y="540" as="sourcePoint" />
            <mxPoint x="90" y="365" as="targetPoint" />
            <Array as="points">
              <mxPoint x="90" y="365" />
            </Array>
          </mxGeometry>
        </mxCell>
        <mxCell id="C9J_RSHf58IaOL_2hDed-9" value="Chybová zpráva" style="rounded=1;whiteSpace=wrap;html=1;shadow=0;comic=0;labelBackgroundColor=none;strokeWidth=1;fontFamily=Verdana;fontSize=12;align=center;arcSize=50;" vertex="1" parent="1c1d494c118603dd-4">
          <mxGeometry x="40" y="400" width="100" height="30" as="geometry" />
        </mxCell>
        <mxCell id="C9J_RSHf58IaOL_2hDed-11" value="Plno" style="text;html=1;strokeColor=none;fillColor=none;align=center;verticalAlign=middle;whiteSpace=wrap;rounded=0;" vertex="1" parent="1c1d494c118603dd-4">
          <mxGeometry x="120" y="340" width="40" height="20" as="geometry" />
        </mxCell>
        <mxCell id="C9J_RSHf58IaOL_2hDed-12" value="" style="endArrow=classic;html=1;exitX=0.5;exitY=1;exitDx=0;exitDy=0;" edge="1" parent="1c1d494c118603dd-4" source="C9J_RSHf58IaOL_2hDed-6">
          <mxGeometry width="50" height="50" relative="1" as="geometry">
            <mxPoint x="160" y="590" as="sourcePoint" />
            <mxPoint x="190" y="470" as="targetPoint" />
          </mxGeometry>
        </mxCell>
        <mxCell id="C9J_RSHf58IaOL_2hDed-13" value="Ověření kolizí" style="rounded=1;whiteSpace=wrap;html=1;shadow=0;comic=0;labelBackgroundColor=none;strokeWidth=1;fontFamily=Verdana;fontSize=12;align=center;arcSize=50;" vertex="1" parent="1c1d494c118603dd-4">
          <mxGeometry x="140" y="470" width="100" height="30" as="geometry" />
        </mxCell>
        <mxCell id="C9J_RSHf58IaOL_2hDed-14" value="" style="rhombus;" vertex="1" parent="1c1d494c118603dd-4">
          <mxGeometry x="175" y="540" width="30" height="30" as="geometry" />
        </mxCell>
        <mxCell id="C9J_RSHf58IaOL_2hDed-15" value="" style="endArrow=classic;html=1;entryX=0.5;entryY=0;entryDx=0;entryDy=0;exitX=0.5;exitY=1;exitDx=0;exitDy=0;" edge="1" parent="1c1d494c118603dd-4" target="C9J_RSHf58IaOL_2hDed-14">
          <mxGeometry width="50" height="50" relative="1" as="geometry">
            <mxPoint x="190" y="500" as="sourcePoint" />
            <mxPoint x="-200" y="600" as="targetPoint" />
          </mxGeometry>
        </mxCell>
        <mxCell id="C9J_RSHf58IaOL_2hDed-19" value="Střet" style="text;html=1;strokeColor=none;fillColor=none;align=center;verticalAlign=middle;whiteSpace=wrap;rounded=0;" vertex="1" parent="1c1d494c118603dd-4">
          <mxGeometry x="120" y="530" width="40" height="20" as="geometry" />
        </mxCell>
        <mxCell id="C9J_RSHf58IaOL_2hDed-20" value="" style="endArrow=classic;html=1;rounded=0;exitX=0.5;exitY=1;exitDx=0;exitDy=0;entryX=0.5;entryY=0;entryDx=0;entryDy=0;" edge="1" parent="1c1d494c118603dd-4" source="C9J_RSHf58IaOL_2hDed-14" target="C9J_RSHf58IaOL_2hDed-23">
          <mxGeometry width="50" height="50" relative="1" as="geometry">
            <mxPoint x="180" y="780" as="sourcePoint" />
            <mxPoint x="190" y="640" as="targetPoint" />
          </mxGeometry>
        </mxCell>
        <mxCell id="C9J_RSHf58IaOL_2hDed-21" value="Volno" style="text;html=1;strokeColor=none;fillColor=none;align=center;verticalAlign=middle;whiteSpace=wrap;rounded=0;" vertex="1" parent="1c1d494c118603dd-4">
          <mxGeometry x="200" y="400" width="40" height="20" as="geometry" />
        </mxCell>
        <mxCell id="C9J_RSHf58IaOL_2hDed-22" value="Bez střetu" style="text;html=1;strokeColor=none;fillColor=none;align=center;verticalAlign=middle;whiteSpace=wrap;rounded=0;" vertex="1" parent="1c1d494c118603dd-4">
          <mxGeometry x="200" y="580" width="40" height="20" as="geometry" />
        </mxCell>
        <mxCell id="C9J_RSHf58IaOL_2hDed-23" value="Uložení do systému" style="rounded=1;whiteSpace=wrap;html=1;shadow=0;comic=0;labelBackgroundColor=none;strokeWidth=1;fontFamily=Verdana;fontSize=12;align=center;arcSize=50;" vertex="1" parent="1c1d494c118603dd-4">
          <mxGeometry x="140" y="660" width="100" height="30" as="geometry" />
        </mxCell>
        <mxCell id="C9J_RSHf58IaOL_2hDed-36" style="edgeStyle=orthogonalEdgeStyle;rounded=0;orthogonalLoop=1;jettySize=auto;html=1;exitX=1;exitY=0.5;exitDx=0;exitDy=0;entryX=0.25;entryY=1;entryDx=0;entryDy=0;" edge="1" parent="1c1d494c118603dd-4" source="C9J_RSHf58IaOL_2hDed-32" target="C9J_RSHf58IaOL_2hDed-23">
          <mxGeometry relative="1" as="geometry" />
        </mxCell>
        <mxCell id="C9J_RSHf58IaOL_2hDed-32" value="Odhlášení z událostí" style="rounded=1;whiteSpace=wrap;html=1;shadow=0;comic=0;labelBackgroundColor=none;strokeWidth=1;fontFamily=Verdana;fontSize=12;align=center;arcSize=50;" vertex="1" parent="1c1d494c118603dd-4">
          <mxGeometry x="20" y="740" width="100" height="30" as="geometry" />
        </mxCell>
        <mxCell id="C9J_RSHf58IaOL_2hDed-10" value="" style="edgeStyle=orthogonalEdgeStyle;rounded=0;orthogonalLoop=1;jettySize=auto;html=1;exitX=0.5;exitY=1;exitDx=0;exitDy=0;entryX=0;entryY=0.5;entryDx=0;entryDy=0;" edge="1" parent="1c1d494c118603dd-1" source="C9J_RSHf58IaOL_2hDed-9" target="60571a20871a0731-8">
          <mxGeometry relative="1" as="geometry">
            <mxPoint x="205" y="240" as="sourcePoint" />
            <mxPoint x="590" y="310" as="targetPoint" />
            <Array as="points">
              <mxPoint x="480" y="470" />
              <mxPoint x="100" y="470" />
              <mxPoint x="100" y="145" />
            </Array>
          </mxGeometry>
        </mxCell>
        <mxCell id="C9J_RSHf58IaOL_2hDed-17" value="" style="endArrow=classic;html=1;exitX=0;exitY=0.5;exitDx=0;exitDy=0;entryX=0.5;entryY=0;entryDx=0;entryDy=0;rounded=0;" edge="1" parent="1c1d494c118603dd-1" source="C9J_RSHf58IaOL_2hDed-14" target="C9J_RSHf58IaOL_2hDed-16">
          <mxGeometry width="50" height="50" relative="1" as="geometry">
            <mxPoint x="470" y="600" as="sourcePoint" />
            <mxPoint x="520" y="550" as="targetPoint" />
            <Array as="points">
              <mxPoint x="140" y="575" />
            </Array>
          </mxGeometry>
        </mxCell>
        <mxCell id="C9J_RSHf58IaOL_2hDed-24" value="" style="endArrow=classic;html=1;exitX=0.5;exitY=1;exitDx=0;exitDy=0;rounded=0;entryX=0.5;entryY=0;entryDx=0;entryDy=0;" edge="1" parent="1c1d494c118603dd-1" source="C9J_RSHf58IaOL_2hDed-23" target="C9J_RSHf58IaOL_2hDed-25">
          <mxGeometry width="50" height="50" relative="1" as="geometry">
            <mxPoint x="580" y="790" as="sourcePoint" />
            <mxPoint x="190" y="800" as="targetPoint" />
            <Array as="points">
              <mxPoint x="580" y="820" />
              <mxPoint x="190" y="820" />
            </Array>
          </mxGeometry>
        </mxCell>
        <mxCell id="C9J_RSHf58IaOL_2hDed-30" style="edgeStyle=orthogonalEdgeStyle;rounded=0;orthogonalLoop=1;jettySize=auto;html=1;exitX=1;exitY=0.5;exitDx=0;exitDy=0;entryX=0;entryY=0.5;entryDx=0;entryDy=0;" edge="1" parent="1c1d494c118603dd-1" source="C9J_RSHf58IaOL_2hDed-27" target="C9J_RSHf58IaOL_2hDed-23">
          <mxGeometry relative="1" as="geometry" />
        </mxCell>
        <mxCell id="C9J_RSHf58IaOL_2hDed-34" style="edgeStyle=orthogonalEdgeStyle;rounded=0;orthogonalLoop=1;jettySize=auto;html=1;exitX=0.5;exitY=1;exitDx=0;exitDy=0;entryX=0;entryY=0.5;entryDx=0;entryDy=0;" edge="1" parent="1c1d494c118603dd-1" source="C9J_RSHf58IaOL_2hDed-27" target="C9J_RSHf58IaOL_2hDed-32">
          <mxGeometry relative="1" as="geometry" />
        </mxCell>
      </root>
    </mxGraphModel>
  </diagram>
</mxfile>
